<?xml version="1.0" encoding="UTF-8" standalone="no"?>
<!-- Created with Inkscape (http://www.inkscape.org/) -->

<svg
   xmlns:dc="http://purl.org/dc/elements/1.1/"
   xmlns:cc="http://creativecommons.org/ns#"
   xmlns:rdf="http://www.w3.org/1999/02/22-rdf-syntax-ns#"
   xmlns:svg="http://www.w3.org/2000/svg"
   xmlns="http://www.w3.org/2000/svg"
   xmlns:sodipodi="http://sodipodi.sourceforge.net/DTD/sodipodi-0.dtd"
   xmlns:inkscape="http://www.inkscape.org/namespaces/inkscape"
   width="76.07872mm"
   height="82.464165mm"
   viewBox="0 0 76.07872 82.464165"
   version="1.1"
   id="svg8"
   inkscape:version="0.92.3 (2405546, 2018-03-11)"
   sodipodi:docname="aspset_logo.svg"
   inkscape:export-filename="/home/aiden/Documents/Papers/ASPset/aspset_logo.svg.png"
   inkscape:export-xdpi="300"
   inkscape:export-ydpi="300">
  <defs
     id="defs2" />
  <sodipodi:namedview
     id="base"
     pagecolor="#ffffff"
     bordercolor="#666666"
     borderopacity="1.0"
     inkscape:pageopacity="0.0"
     inkscape:pageshadow="2"
     inkscape:zoom="1.4"
     inkscape:cx="125.53208"
     inkscape:cy="174.70631"
     inkscape:document-units="mm"
     inkscape:current-layer="layer1"
     showgrid="false"
     inkscape:snap-global="true"
     inkscape:snap-object-midpoints="true"
     inkscape:window-width="1853"
     inkscape:window-height="1016"
     inkscape:window-x="1987"
     inkscape:window-y="27"
     inkscape:window-maximized="1"
     fit-margin-top="8"
     fit-margin-left="8"
     fit-margin-right="8"
     fit-margin-bottom="8" />
  <metadata
     id="metadata5">
    <rdf:RDF>
      <cc:Work
         rdf:about="">
        <dc:format>image/svg+xml</dc:format>
        <dc:type
           rdf:resource="http://purl.org/dc/dcmitype/StillImage" />
        <dc:title />
      </cc:Work>
    </rdf:RDF>
  </metadata>
  <g
     inkscape:label="Layer 1"
     inkscape:groupmode="layer"
     id="layer1"
     transform="translate(-43.760157,-125.11129)">
    <path
       style="fill:#000000;fill-opacity:1;stroke:#000000;stroke-width:4;stroke-linecap:butt;stroke-linejoin:miter;stroke-opacity:1;stroke-miterlimit:4;stroke-dasharray:none"
       d="m 65.924781,133.11168 c -5.113769,0.0365 -10.30096,2.92424 -13.540259,10.07484 -1.52873,3.3746 -0.152889,10.36349 3.064928,11.58999 -0.240807,1.93193 -0.57342,3.86005 0.566891,5.84719 -0.04243,1.34993 -0.01351,2.66409 0.471805,3.75016 0.340691,-0.83617 0.570804,-1.68934 0.337966,-2.6138 0.75098,0.83483 1.822005,0.97614 2.825665,1.26349 -0.73837,-0.75814 -1.306364,-1.62291 -2.369362,-2.17816 -1.168347,-2.38638 -0.99459,-4.03781 -0.815972,-5.88181 0.108055,-5.6e-4 0.216942,-0.004 0.328146,-0.0171 6.185948,1.5871 10.712757,-7.68077 10.957986,-5.34541 0.518311,4.93596 -3.707355,12.58778 -4.276225,19.91145 -0.806479,10.38257 3.421854,16.33272 14.165543,10.02264 7.801631,-4.58212 12.0542,1.43982 15.90239,2.53886 7.660717,2.1879 14.022757,-4.00206 14.699877,-8.95345 0.44043,-3.22064 0.78896,-7.58841 -1.85363,-9.71001 0.94435,-0.99754 1.76452,-2.39215 2.33887,-4.03231 0.86726,-0.0212 1.66672,-0.25998 2.30115,-0.81183 1.49797,-1.30299 0.72003,-3.11382 -0.75602,-4.44159 -0.21542,-0.19378 -0.44958,-0.31915 -0.69608,-0.40256 -0.0316,-0.96724 -0.14939,-1.95638 -0.37311,-2.95176 -1.53853,-6.84528 -8.09048,-11.20189 -10.920777,-10.56576 -3.06782,0.68951 -6.888065,7.37763 -5.349544,14.2229 0.07342,0.32669 0.160972,0.64588 0.25528,0.96118 -4.13544,1.603 -4.425198,7.93932 1.556494,9.98079 6.129837,2.09203 3.786253,6.48818 -2.271697,4.00906 -3.309249,-1.35426 -6.749515,-4.98733 -10.957986,-2.80603 -2.5161,1.30412 -5.533578,3.67998 -5.612577,-2.13838 -0.07708,-5.67768 5.71232,-10.3581 5.746419,-16.03622 0.05084,-8.46145 -7.748693,-15.34327 -15.726171,-15.28641 z"
       id="path829"
       inkscape:connector-curvature="0" />
    <path
       style="fill:#d40000;fill-opacity:1;stroke:none;stroke-width:0.26458332px;stroke-linecap:butt;stroke-linejoin:miter;stroke-opacity:1"
       d="m 55.507098,154.30687 1.031299,-0.1298 c -0.175031,2.19336 -0.589864,3.94389 0.74402,6.66837 1.062998,0.55525 1.631018,1.41987 2.36939,2.17801 -1.003659,-0.28735 -2.074744,-0.4286 -2.82572,-1.26343 0.232842,0.92446 0.0034,1.77781 -0.337688,2.61397 -0.485325,-1.08606 -0.514413,-2.40024 -0.471988,-3.75018 -1.232699,-2.14813 -0.742123,-4.22738 -0.509318,-6.31694 z"
       id="path846"
       inkscape:connector-curvature="0"
       sodipodi:nodetypes="ccccccccc" />
    <path
       style="opacity:1;fill:#d40000;fill-opacity:1;fill-rule:nonzero;stroke:none;stroke-width:0.13275242;stroke-linecap:square;stroke-miterlimit:4;stroke-dasharray:none;stroke-opacity:1"
       d="m 109.20546,150.77067 c 1.53852,6.84526 -1.80664,13.42662 -5.34951,14.22291 -3.06781,0.68951 -9.382464,-3.72072 -10.920991,-10.566 -1.538527,-6.84527 2.281679,-13.5334 5.349498,-14.22291 2.830293,-0.63613 9.382473,3.72072 10.921003,10.566 z"
       id="path823"
       inkscape:connector-curvature="0"
       sodipodi:nodetypes="sssss" />
    <path
       style="fill:#cdde87;stroke:none;stroke-width:0.26458332px;stroke-linecap:butt;stroke-linejoin:miter;stroke-opacity:1"
       d="m 93.210246,155.38056 c 1.333965,3.29403 3.321869,6.48578 9.421254,6.78196 6.62508,0.3217 6.20026,6.66122 5.61266,10.95805 -0.67712,4.95139 -7.03911,11.14143 -14.699827,8.95353 -3.84819,-1.09904 -8.10091,-7.12118 -15.902537,-2.53906 -10.743687,6.31008 -14.971764,0.35996 -14.165284,-10.02261 0.568875,-7.32367 4.794621,-14.97562 4.276312,-19.91158 -0.245228,-2.33536 -4.772104,6.93249 -10.958049,5.34539 -4.157922,0.48844 -6.137491,-7.94639 -4.409948,-11.75986 8.292612,-18.30553 29.349443,-8.67369 29.266014,5.21176 -0.03412,5.67812 -5.823379,10.35848 -5.746295,16.03617 0.07899,5.81836 3.096563,3.44228 5.61266,2.13816 4.208466,-2.1813 7.648794,1.45207 10.958049,2.80633 6.057946,2.47912 8.401625,-1.91701 2.271792,-4.00904 -5.991389,-2.04478 -5.691436,-8.399 -1.536801,-9.9892 z"
       id="path821"
       inkscape:connector-curvature="0"
       sodipodi:nodetypes="csssssscssssssc" />
    <path
       style="fill:none;stroke:#89a02c;stroke-width:0.5;stroke-linecap:butt;stroke-linejoin:miter;stroke-miterlimit:4;stroke-dasharray:none;stroke-opacity:1"
       d="m 64.728423,140.89583 10.205357,5.85863 -5.10268,27.78125 14.174107,-3.2128 13.890625,6.33111 6.047618,-9.6384"
       id="path832"
       inkscape:connector-curvature="0" />
    <circle
       style="opacity:1;fill:#445016;fill-opacity:1;fill-rule:nonzero;stroke:none;stroke-width:0.5;stroke-linecap:square;stroke-miterlimit:4;stroke-dasharray:none;stroke-opacity:1"
       id="path834"
       cx="64.728424"
       cy="140.89583"
       r="1.8898809" />
    <circle
       r="1.8898809"
       cy="146.75446"
       cx="74.933777"
       id="circle836"
       style="opacity:1;fill:#445016;fill-opacity:1;fill-rule:nonzero;stroke:none;stroke-width:0.5;stroke-linecap:square;stroke-miterlimit:4;stroke-dasharray:none;stroke-opacity:1" />
    <circle
       style="opacity:1;fill:#445016;fill-opacity:1;fill-rule:nonzero;stroke:none;stroke-width:0.5;stroke-linecap:square;stroke-miterlimit:4;stroke-dasharray:none;stroke-opacity:1"
       id="circle838"
       cx="69.8311"
       cy="174.53571"
       r="1.8898809" />
    <circle
       r="1.8898809"
       cy="171.32291"
       cx="84.005203"
       id="circle840"
       style="opacity:1;fill:#445016;fill-opacity:1;fill-rule:nonzero;stroke:none;stroke-width:0.5;stroke-linecap:square;stroke-miterlimit:4;stroke-dasharray:none;stroke-opacity:1" />
    <circle
       style="opacity:1;fill:#445016;fill-opacity:1;fill-rule:nonzero;stroke:none;stroke-width:0.5;stroke-linecap:square;stroke-miterlimit:4;stroke-dasharray:none;stroke-opacity:1"
       id="circle842"
       cx="97.895828"
       cy="177.65402"
       r="1.8898809" />
    <circle
       r="1.8898809"
       cy="168.01562"
       cx="103.94345"
       id="circle844"
       style="opacity:1;fill:#445016;fill-opacity:1;fill-rule:nonzero;stroke:none;stroke-width:0.5;stroke-linecap:square;stroke-miterlimit:4;stroke-dasharray:none;stroke-opacity:1" />
    <path
       style="fill:#ffffff;stroke:none;stroke-width:0.99999994px;stroke-linecap:butt;stroke-linejoin:miter;stroke-opacity:1"
       d="M 243.74609 86.417969 L 232.73438 90.160156 L 234.24805 93.822266 L 245.22656 89.916016 C 244.77399 88.721366 244.27299 87.560474 243.74609 86.417969 z "
       transform="matrix(0.26458333,0,0,0.26458333,43.760157,125.11129)"
       id="path848" />
    <path
       style="fill:#ffffff;stroke:none;stroke-width:0.99999994px;stroke-linecap:butt;stroke-linejoin:miter;stroke-opacity:1"
       d="M 246.73242 94.513672 L 235.76367 98.240234 L 237.2793 101.90234 L 247.60547 98.228516 C 247.52132 97.812467 247.44521 97.397122 247.35156 96.980469 C 247.16456 96.148447 246.95752 95.325925 246.73242 94.513672 z "
       transform="matrix(0.26458333,0,0,0.26458333,43.760157,125.11129)"
       id="path850" />
    <path
       style="fill:#ffffff;stroke:none;stroke-width:0.99999994px;stroke-linecap:butt;stroke-linejoin:miter;stroke-opacity:1"
       d="M 248.33984 102.73438 L 237.78516 106.32227 L 239.29883 109.98438 L 248.70508 106.63867 C 248.63057 105.34666 248.50144 104.04249 248.33984 102.73438 z "
       transform="matrix(0.26458333,0,0,0.26458333,43.760157,125.11129)"
       id="path852" />
    <path
       style="fill:#cdde87;fill-opacity:1;stroke:none;stroke-width:0.26458332px;stroke-linecap:butt;stroke-linejoin:miter;stroke-opacity:1"
       d="m 99.218749,149.87276 c 0,0 3.869061,3.42854 6.236611,3.87426 1.67611,0.31555 3.55118,-0.76266 4.8192,0.37797 1.47605,1.32777 2.25392,3.13823 0.75595,4.44122 -2.0981,1.825 -5.99312,0.24669 -8.22099,-1.41741 -2.16686,-1.61853 -3.590771,-7.27604 -3.590771,-7.27604 z"
       id="path826"
       inkscape:connector-curvature="0"
       sodipodi:nodetypes="cssssc" />
    <text
       xml:space="preserve"
       style="font-style:normal;font-weight:normal;font-size:10.58333302px;line-height:1.25;font-family:sans-serif;letter-spacing:0px;word-spacing:0px;fill:#d40000;fill-opacity:1;stroke:none;stroke-width:0.26458332"
       x="81.860001"
       y="199.36874"
       id="text860"><tspan
         sodipodi:role="line"
         id="tspan858"
         x="81.860001"
         y="199.36874"
         style="font-style:normal;font-variant:normal;font-weight:normal;font-stretch:normal;font-size:16.93333244px;font-family:Ubuntu;-inkscape-font-specification:Ubuntu;text-align:center;text-anchor:middle;fill:#d40000;fill-opacity:1;stroke-width:0.26458332">ASP<tspan
   style="font-style:normal;font-variant:normal;font-weight:normal;font-stretch:normal;font-family:Ubuntu;-inkscape-font-specification:Ubuntu;text-align:center;text-anchor:middle;fill:#445500"
   id="tspan862">set</tspan></tspan></text>
  </g>
</svg>
